<svg width="23" height="20" viewBox="0 0 23 20" fill="none" xmlns="http://www.w3.org/2000/svg">
<path fill-rule="evenodd" clip-rule="evenodd" d="M8.90408 0.9373C9.43366 0.410419 10.2902 0.413121 10.8171 0.940002C11.3439 1.46688 11.3439 2.3234 10.8171 2.85028L5.41316 8.25419C5.14837 8.51628 4.80252 8.64867 4.45667 8.64867C4.11082 8.64867 3.76497 8.51628 3.50288 8.25149L0.800922 5.54953C0.274042 5.02265 0.274042 4.16613 0.800922 3.63925C1.3278 3.11237 2.18432 3.11237 2.7112 3.63925L4.45667 5.38742L8.90408 0.9373ZM8.90408 11.7451C9.43366 11.2182 10.2902 11.2209 10.8171 11.7478C11.3439 12.2747 11.3439 13.1312 10.8171 13.6581L5.41316 19.062C5.14837 19.3241 4.80252 19.4565 4.45667 19.4565C4.11082 19.4565 3.76497 19.3241 3.50288 19.062L0.800922 16.36C0.274042 15.8332 0.274042 14.9766 0.800922 14.4498C1.3278 13.9229 2.18432 13.9229 2.7112 14.4498L4.45667 16.1952L8.90408 11.7451ZM20.6684 3.24477H15.2645C14.5187 3.24477 13.9135 3.85001 13.9135 4.59574C13.9135 5.34148 14.5187 5.94672 15.2645 5.94672H20.6684C21.4141 5.94672 22.0194 5.34148 22.0194 4.59574C22.0194 3.85001 21.4141 3.24477 20.6684 3.24477ZM15.2645 14.0526H20.6684C21.4141 14.0526 22.0194 14.6578 22.0194 15.4036C22.0194 16.1493 21.4141 16.7545 20.6684 16.7545H15.2645C14.5187 16.7545 13.9135 16.1493 13.9135 15.4036C13.9135 14.6578 14.5187 14.0526 15.2645 14.0526Z" fill="#FFC200"/>
</svg>
