<svg width="70" height="61" viewBox="0 0 70 61" fill="none" xmlns="http://www.w3.org/2000/svg">
<path id="Logo" fill-rule="evenodd" clip-rule="evenodd" d="M27.5235 1.27016C29.2387 -0.429186 32.0127 -0.420471 33.7191 1.27888C35.4255 2.97822 35.4255 5.74075 33.7191 7.44009L16.2175 24.8693C15.3599 25.7146 14.2398 26.1416 13.1197 26.1416C11.9996 26.1416 10.8795 25.7146 10.0306 24.8606L1.27981 16.146C-0.426602 14.4466 -0.426602 11.6841 1.27981 9.98476C2.98622 8.28541 5.76023 8.28541 7.46664 9.98476L13.1197 15.6231L27.5235 1.27016ZM27.5235 36.1285C29.2387 34.4292 32.0127 34.4379 33.7191 36.1373C35.4255 37.8366 35.4255 40.5991 33.7191 42.2985L16.2175 59.7277C15.3599 60.573 14.2398 61 13.1197 61C11.9996 61 10.8795 60.573 10.0306 59.7277L1.27981 51.0131C-0.426602 49.3137 -0.426602 46.5512 1.27981 44.8519C2.98622 43.1525 5.76023 43.1525 7.46664 44.8519L13.1197 50.4815L27.5235 36.1285ZM65.6246 8.71243H48.1229C45.7077 8.71243 43.7475 10.6645 43.7475 13.0697C43.7475 15.475 45.7077 17.427 48.1229 17.427H65.6246C68.0398 17.427 70 15.475 70 13.0697C70 10.6645 68.0398 8.71243 65.6246 8.71243ZM48.1229 43.5708H65.6246C68.0398 43.5708 70 45.5229 70 47.9281C70 50.3333 68.0398 52.2854 65.6246 52.2854H48.1229C45.7077 52.2854 43.7475 50.3333 43.7475 47.9281C43.7475 45.5229 45.7077 43.5708 48.1229 43.5708Z" fill="#FFC200"/>
</svg>
